<svg width="1200" height="720" viewBox="0 0 1200 720" fill="none" xmlns="http://www.w3.org/2000/svg">
  <defs>
    <linearGradient id="bg3" x1="0" y1="0" x2="1200" y2="720" gradientUnits="userSpaceOnUse">
      <stop stop-color="#12304E"/>
      <stop offset="1" stop-color="#0E1E36"/>
    </linearGradient>
    <linearGradient id="token" x1="120" y1="120" x2="1100" y2="620" gradientUnits="userSpaceOnUse">
      <stop stop-color="#49DACB"/>
      <stop offset="1" stop-color="#55AFFF"/>
    </linearGradient>
  </defs>
  <rect width="1200" height="720" rx="32" fill="url(#bg3)"/>
  <rect x="80" y="92" width="1040" height="536" rx="24" fill="#0F2743" stroke="#2D547C" stroke-width="2"/>
  <rect x="116" y="130" width="968" height="82" rx="14" fill="#16345A"/>
  <rect x="154" y="162" width="184" height="18" rx="6" fill="#3B6B98"/>
  <rect x="944" y="158" width="102" height="24" rx="10" fill="url(#token)"/>
  <rect x="116" y="236" width="462" height="352" rx="18" fill="#16345A"/>
  <rect x="608" y="236" width="476" height="166" rx="18" fill="#16345A"/>
  <rect x="608" y="422" width="476" height="166" rx="18" fill="#16345A"/>
  <circle cx="246" cy="330" r="74" fill="url(#token)" fill-opacity="0.8"/>
  <rect x="164" y="428" width="248" height="18" rx="6" fill="#3A6995"/>
  <rect x="164" y="460" width="328" height="18" rx="6" fill="#3A6995"/>
  <rect x="164" y="492" width="286" height="18" rx="6" fill="#3A6995"/>
  <rect x="644" y="274" width="258" height="20" rx="7" fill="#3A6995"/>
  <rect x="644" y="308" width="404" height="16" rx="6" fill="#4678A7"/>
  <rect x="644" y="336" width="360" height="16" rx="6" fill="#4678A7"/>
  <rect x="644" y="460" width="258" height="20" rx="7" fill="#3A6995"/>
  <rect x="644" y="494" width="404" height="16" rx="6" fill="#4678A7"/>
  <rect x="644" y="522" width="360" height="16" rx="6" fill="#4678A7"/>
</svg>
