<svg width="1200" height="720" viewBox="0 0 1200 720" fill="none" xmlns="http://www.w3.org/2000/svg">
  <defs>
    <linearGradient id="bg" x1="0" y1="0" x2="1200" y2="720" gradientUnits="userSpaceOnUse">
      <stop stop-color="#0E2A47"/>
      <stop offset="1" stop-color="#14395D"/>
    </linearGradient>
    <linearGradient id="accent" x1="120" y1="120" x2="1080" y2="620" gradientUnits="userSpaceOnUse">
      <stop stop-color="#42D2C5"/>
      <stop offset="1" stop-color="#64B5FF"/>
    </linearGradient>
  </defs>
  <rect width="1200" height="720" rx="32" fill="url(#bg)"/>
  <rect x="72" y="96" width="1056" height="528" rx="22" fill="#0D233C" stroke="#27507A" stroke-width="2"/>
  <rect x="108" y="138" width="318" height="444" rx="16" fill="#122C49"/>
  <rect x="144" y="182" width="246" height="30" rx="8" fill="#25507E"/>
  <rect x="144" y="236" width="190" height="18" rx="6" fill="#32618F"/>
  <rect x="144" y="270" width="218" height="18" rx="6" fill="#32618F"/>
  <rect x="144" y="304" width="204" height="18" rx="6" fill="#32618F"/>
  <rect x="144" y="350" width="176" height="42" rx="12" fill="url(#accent)"/>
  <rect x="462" y="138" width="630" height="210" rx="16" fill="#122C49"/>
  <rect x="498" y="178" width="240" height="22" rx="7" fill="#2A5888"/>
  <rect x="498" y="216" width="420" height="16" rx="6" fill="#346596"/>
  <rect x="498" y="244" width="386" height="16" rx="6" fill="#346596"/>
  <rect x="498" y="384" width="300" height="198" rx="16" fill="#122C49"/>
  <rect x="830" y="384" width="262" height="198" rx="16" fill="#122C49"/>
  <circle cx="585" cy="475" r="54" fill="url(#accent)" fill-opacity="0.75"/>
  <rect x="548" y="548" width="74" height="12" rx="6" fill="#3D73A4"/>
  <rect x="874" y="428" width="174" height="16" rx="6" fill="#3D73A4"/>
  <rect x="874" y="458" width="140" height="16" rx="6" fill="#3D73A4"/>
  <rect x="874" y="488" width="158" height="16" rx="6" fill="#3D73A4"/>
</svg>
